<?xml version="1.0" encoding="utf-8"?>
<COLLADA xmlns="http://www.collada.org/2005/11/COLLADASchema" version="1.4.1" xmlns:xsi="http://www.w3.org/2001/XMLSchema-instance">
  <asset>
    <contributor>
      <author>Blender User</author>
      <authoring_tool>Blender 3.5.1 commit date:2023-04-24, commit time:18:11, hash:e1ccd9d4a1d3</authoring_tool>
    </contributor>
    <created>2025-04-24T19:22:41</created>
    <modified>2025-04-24T19:22:41</modified>
    <unit name="meter" meter="1"/>
    <up_axis>Z_UP</up_axis>
  </asset>
  <library_effects>
    <effect id="Helipad_001-effect">
      <profile_COMMON>
        <newparam sid="landing_pad_png-surface">
          <surface type="2D">
            <init_from>landing_pad_png</init_from>
          </surface>
        </newparam>
        <newparam sid="landing_pad_png-sampler">
          <sampler2D>
            <source>landing_pad_png-surface</source>
          </sampler2D>
        </newparam>
        <technique sid="common">
          <lambert>
            <emission>
              <color sid="emission">0 0 0 1</color>
            </emission>
            <diffuse>
              <texture texture="landing_pad_png-sampler" texcoord="UVMap"/>
            </diffuse>
            <index_of_refraction>
              <float sid="ior">1.45</float>
            </index_of_refraction>
          </lambert>
        </technique>
      </profile_COMMON>
    </effect>
  </library_effects>
  <library_images>
    <image id="landing_pad_png" name="landing_pad_png">
      <init_from>landing_pad.png</init_from>
    </image>
  </library_images>
  <library_materials>
    <material id="Helipad_001-material" name="Helipad.001">
      <instance_effect url="#Helipad_001-effect"/>
    </material>
  </library_materials>
  <library_geometries>
    <geometry id="landing_pad-mesh" name="landing_pad">
      <mesh>
        <source id="landing_pad-mesh-positions">
          <float_array id="landing_pad-mesh-positions-array" count="96">0.06961923 0.3499996 0 0.06961923 0.3499996 0.006488442 0.1982588 0.2967153 0 0.1982588 0.2967153 0.006488442 0.2967153 0.1982588 0 0.2967153 0.1982588 0.006488442 0.3499996 0.06961923 0 0.3499996 0.06961923 0.006488442 0.3499996 -0.06961923 0 0.3499996 -0.06961923 0.006488442 0.2967153 -0.1982588 0 0.2967153 -0.1982588 0.006488442 0.1982588 -0.2967153 0 0.1982588 -0.2967153 0.006488442 0.06961923 -0.3499996 0 0.06961923 -0.3499996 0.006488442 -0.06961923 -0.3499996 0 -0.06961923 -0.3499996 0.006488442 -0.1982588 -0.2967153 0 -0.1982588 -0.2967153 0.006488442 -0.2967153 -0.1982588 0 -0.2967153 -0.1982588 0.006488442 -0.3499996 -0.06961923 0 -0.3499996 -0.06961923 0.006488442 -0.3499996 0.06961923 0 -0.3499996 0.06961923 0.006488442 -0.2967153 0.1982588 0 -0.2967153 0.1982588 0.006488442 -0.1982588 0.2967153 0 -0.1982588 0.2967153 0.006488442 -0.06961923 0.3499996 0 -0.06961923 0.3499996 0.006488442</float_array>
          <technique_common>
            <accessor source="#landing_pad-mesh-positions-array" count="32" stride="3">
              <param name="X" type="float"/>
              <param name="Y" type="float"/>
              <param name="Z" type="float"/>
            </accessor>
          </technique_common>
        </source>
        <source id="landing_pad-mesh-normals">
          <float_array id="landing_pad-mesh-normals-array" count="135">0.1950904 0.9807853 0 0.5555702 0.8314696 0 0.1950904 0.9807853 0 0.55557 0.8314698 0 0.8314698 0.55557 0 0.8314697 0.5555703 0 0.9807853 0.1950904 0 0.9807853 0.1950905 0 0.9807853 -0.1950905 0 0.9807853 -0.1950905 0 0.8314697 -0.5555703 0 0.8314697 -0.5555701 0 0.5555702 -0.8314697 0 0.5555704 -0.8314695 0 0.1950903 -0.9807854 0 0.1950904 -0.9807854 0 -0.1950904 -0.9807853 0 -0.1950904 -0.9807853 0 -0.5555702 -0.8314696 0 -0.55557 -0.8314698 0 -0.8314698 -0.55557 0 -0.8314697 -0.5555703 0 -0.9807853 -0.1950904 0 -0.9807853 -0.1950905 0 -0.9807853 0.1950905 0 -0.9807853 0.1950905 0 -0.8314697 0.5555703 0 -0.8314697 0.5555701 0 -0.5555702 0.8314697 0 0 0 1 0 0 1 0 0 1 -0.5555704 0.8314695 0 -0.1950903 0.9807854 0 -0.1950904 0.9807854 0 0 0 1 0 0 1 0 0 1 0 0 1 0 0 1 0 0 1 0 0 1 0 0 1 0 0 1 0 0 1</float_array>
          <technique_common>
            <accessor source="#landing_pad-mesh-normals-array" count="45" stride="3">
              <param name="X" type="float"/>
              <param name="Y" type="float"/>
              <param name="Z" type="float"/>
            </accessor>
          </technique_common>
        </source>
        <source id="landing_pad-mesh-map-0">
          <float_array id="landing_pad-mesh-map-0-array" count="276">0.01633757 4.71285e-4 0.01308614 0.07024121 0.01308643 4.71246e-4 0.01633733 0.07024121 0.01308614 0.1400111 0.01308614 0.07024121 0.01633727 0.1400111 0.01308625 0.2097811 0.01308614 0.1400111 0.01633739 0.2097811 0.01308643 0.2795511 0.01308625 0.2097811 0.004698455 0.2795511 0.007949411 0.2097811 0.00794965 0.2795511 0.004698216 0.2097811 0.007949292 0.1400111 0.007949411 0.2097811 0.004698157 0.1400111 0.007949352 0.07024121 0.007949292 0.1400111 0.004698157 0.07024121 0.00794959 4.71285e-4 0.007949352 0.07024121 5.04466e-4 0.2795511 0.00375545 0.2097811 0.003755569 0.2795511 5.04272e-4 0.2097811 0.003755271 0.1400111 0.00375545 0.2097811 5.04142e-4 0.1400111 0.003755331 0.07024121 0.003755271 0.1400111 5.04185e-4 0.07024121 0.003755569 4.71285e-4 0.003755331 0.07024121 0.01214367 4.71285e-4 0.008892178 0.07024121 0.008892416 4.71246e-4 0.01214337 0.07024121 0.008892118 0.1400111 0.008892178 0.07024121 0.7818815 0.07813423 0.9218657 0.7818815 0.2181184 0.9218657 0.01214331 0.1400111 0.008892297 0.2097811 0.008892118 0.1400111 0.01214343 0.2097811 0.008892416 0.2795511 0.008892297 0.2097811 0.01633757 4.71285e-4 0.01633733 0.07024121 0.01308614 0.07024121 0.01633733 0.07024121 0.01633727 0.1400111 0.01308614 0.1400111 0.01633727 0.1400111 0.01633739 0.2097811 0.01308625 0.2097811 0.01633739 0.2097811 0.01633757 0.2795511 0.01308643 0.2795511 0.004698455 0.2795511 0.004698216 0.2097811 0.007949411 0.2097811 0.004698216 0.2097811 0.004698157 0.1400111 0.007949292 0.1400111 0.004698157 0.1400111 0.004698157 0.07024121 0.007949352 0.07024121 0.004698157 0.07024121 0.004698455 4.71246e-4 0.00794959 4.71285e-4 5.04466e-4 0.2795511 5.04272e-4 0.2097811 0.00375545 0.2097811 5.04272e-4 0.2097811 5.04142e-4 0.1400111 0.003755271 0.1400111 5.04142e-4 0.1400111 5.04185e-4 0.07024121 0.003755331 0.07024121 5.04185e-4 0.07024121 5.04445e-4 4.71246e-4 0.003755569 4.71285e-4 0.01214367 4.71285e-4 0.01214337 0.07024121 0.008892178 0.07024121 0.01214337 0.07024121 0.01214331 0.1400111 0.008892118 0.1400111 0.2181184 0.9218657 0.07813453 0.7818817 0.002375602 0.5989838 0.002375602 0.5989838 0.002375543 0.4010165 0.2181184 0.9218657 0.002375543 0.4010165 0.07813429 0.2181184 0.2181184 0.9218657 0.07813429 0.2181184 0.2181182 0.07813447 0.7818815 0.07813423 0.2181182 0.07813447 0.4010162 0.002375543 0.7818815 0.07813423 0.4010162 0.002375543 0.5989835 0.002375543 0.7818815 0.07813423 0.7818815 0.07813423 0.9218656 0.2181181 0.9218657 0.7818815 0.9218656 0.2181181 0.9976244 0.4010162 0.9218657 0.7818815 0.9976244 0.4010162 0.9976244 0.5989834 0.9218657 0.7818815 0.9218657 0.7818815 0.7818817 0.9218655 0.5989838 0.9976244 0.5989838 0.9976244 0.4010165 0.9976244 0.9218657 0.7818815 0.4010165 0.9976244 0.2181184 0.9218657 0.9218657 0.7818815 0.2181184 0.9218657 0.07813429 0.2181184 0.7818815 0.07813423 0.01214331 0.1400111 0.01214343 0.2097811 0.008892297 0.2097811 0.01214343 0.2097811 0.01214367 0.2795511 0.008892416 0.2795511</float_array>
          <technique_common>
            <accessor source="#landing_pad-mesh-map-0-array" count="138" stride="2">
              <param name="S" type="float"/>
              <param name="T" type="float"/>
            </accessor>
          </technique_common>
        </source>
        <vertices id="landing_pad-mesh-vertices">
          <input semantic="POSITION" source="#landing_pad-mesh-positions"/>
        </vertices>
        <triangles material="Helipad_001-material" count="46">
          <input semantic="VERTEX" source="#landing_pad-mesh-vertices" offset="0"/>
          <input semantic="NORMAL" source="#landing_pad-mesh-normals" offset="1"/>
          <input semantic="TEXCOORD" source="#landing_pad-mesh-map-0" offset="2" set="1"/>
          <p>1 0 0 2 1 1 0 2 2 3 3 3 4 4 4 2 1 5 5 5 6 6 6 7 4 4 8 7 7 9 8 8 10 6 6 11 9 9 12 10 10 13 8 8 14 11 11 15 12 12 16 10 10 17 13 13 18 14 14 19 12 12 20 15 15 21 16 16 22 14 14 23 17 17 24 18 18 25 16 16 26 19 19 27 20 20 28 18 18 29 21 21 30 22 22 31 20 20 32 23 23 33 24 24 34 22 22 35 25 25 36 26 26 37 24 24 38 27 27 39 28 28 40 26 26 41 21 29 42 13 30 43 5 31 44 29 32 45 30 33 46 28 28 47 31 34 48 0 2 49 30 33 50 1 0 51 3 3 52 2 1 53 3 3 54 5 5 55 4 4 56 5 5 57 7 7 58 6 6 59 7 7 60 9 9 61 8 8 62 9 9 63 11 11 64 10 10 65 11 11 66 13 13 67 12 12 68 13 13 69 15 15 70 14 14 71 15 15 72 17 17 73 16 16 74 17 17 75 19 19 76 18 18 77 19 19 78 21 21 79 20 20 80 21 21 81 23 23 82 22 22 83 23 23 84 25 25 85 24 24 86 25 25 87 27 27 88 26 26 89 27 27 90 29 32 91 28 28 92 5 31 93 3 35 94 1 35 95 1 35 96 31 35 97 5 31 98 31 35 99 29 36 100 5 31 101 29 36 102 27 37 103 21 29 104 27 37 105 25 38 106 21 29 107 25 38 108 23 39 109 21 29 110 21 29 111 19 40 112 13 30 113 19 40 114 17 41 115 13 30 116 17 41 117 15 35 118 13 30 119 13 30 120 11 42 121 9 43 122 9 43 123 7 44 124 13 30 125 7 44 126 5 31 127 13 30 128 5 31 129 29 36 130 21 29 131 29 32 132 31 34 133 30 33 134 31 34 135 1 0 136 0 2 137</p>
        </triangles>
      </mesh>
    </geometry>
  </library_geometries>
  <library_visual_scenes>
    <visual_scene id="Scene" name="Scene">
      <node id="landing_pad" name="landing_pad" type="NODE">
        <matrix sid="transform">1 0 0 0 0 1 0 0 0 0 1 0 0 0 0 1</matrix>
        <instance_geometry url="#landing_pad-mesh" name="landing_pad">
          <bind_material>
            <technique_common>
              <instance_material symbol="Helipad_001-material" target="#Helipad_001-material">
                <bind_vertex_input semantic="UVMap" input_semantic="TEXCOORD" input_set="0"/>
              </instance_material>
            </technique_common>
          </bind_material>
        </instance_geometry>
      </node>
    </visual_scene>
  </library_visual_scenes>
  <scene>
    <instance_visual_scene url="#Scene"/>
  </scene>
</COLLADA>